<?xml version="1.0" encoding="UTF-8"?>
<svg xmlns="http://www.w3.org/2000/svg" xmlns:xlink="http://www.w3.org/1999/xlink" width="54pt" height="54pt" viewBox="0 0 54 54" version="1.1">
<g id="surface1">
<path style=" stroke:none;fill-rule:nonzero;fill:rgb(0%,0%,0%);fill-opacity:1;" d="M 8.367188 30.25 L 12.574219 30.25 C 13.144531 30.25 13.605469 29.789062 13.605469 29.21875 L 13.605469 25.203125 C 13.605469 24.632812 13.144531 24.171875 12.574219 24.171875 L 8.367188 24.171875 C 7.800781 24.171875 7.335938 24.632812 7.335938 25.203125 L 7.335938 29.21875 C 7.335938 29.789062 7.796875 30.25 8.367188 30.25 Z M 9.394531 26.226562 L 11.542969 26.226562 L 11.542969 28.1875 L 9.394531 28.1875 Z M 9.394531 26.226562 "/>
<path style=" stroke:none;fill-rule:nonzero;fill:rgb(0%,0%,0%);fill-opacity:1;" d="M 8.367188 38.367188 L 12.574219 38.367188 C 13.144531 38.367188 13.605469 37.90625 13.605469 37.335938 L 13.605469 33.320312 C 13.605469 32.75 13.144531 32.289062 12.574219 32.289062 L 8.367188 32.289062 C 7.800781 32.289062 7.335938 32.75 7.335938 33.320312 L 7.335938 37.335938 C 7.335938 37.90625 7.796875 38.367188 8.367188 38.367188 Z M 9.394531 34.34375 L 11.542969 34.34375 L 11.542969 36.304688 L 9.394531 36.304688 Z M 9.394531 34.34375 "/>
<path style=" stroke:none;fill-rule:nonzero;fill:rgb(0%,0%,0%);fill-opacity:1;" d="M 23.585938 20.691406 L 28.011719 20.691406 C 28.582031 20.691406 29.042969 20.230469 29.042969 19.664062 L 29.042969 15.4375 C 29.042969 14.871094 28.582031 14.40625 28.011719 14.40625 L 23.585938 14.40625 C 23.019531 14.40625 22.554688 14.871094 22.554688 15.4375 L 22.554688 19.664062 C 22.554688 20.230469 23.019531 20.691406 23.585938 20.691406 Z M 24.617188 16.46875 L 26.980469 16.46875 L 26.980469 18.632812 L 24.617188 18.632812 Z M 24.617188 16.46875 "/>
<path style=" stroke:none;fill-rule:nonzero;fill:rgb(0%,0%,0%);fill-opacity:1;" d="M 32.75 20.691406 L 37.171875 20.691406 C 37.742188 20.691406 38.203125 20.230469 38.203125 19.664062 L 38.203125 15.4375 C 38.203125 14.871094 37.742188 14.40625 37.171875 14.40625 L 32.75 14.40625 C 32.175781 14.40625 31.71875 14.871094 31.71875 15.4375 L 31.71875 19.664062 C 31.71875 20.230469 32.175781 20.691406 32.75 20.691406 Z M 33.777344 16.46875 L 36.140625 16.46875 L 36.140625 18.632812 L 33.777344 18.632812 Z M 33.777344 16.46875 "/>
<path style=" stroke:none;fill-rule:nonzero;fill:rgb(0%,0%,0%);fill-opacity:1;" d="M 28.121094 23.332031 L 23.695312 23.332031 C 23.132812 23.332031 22.667969 23.792969 22.667969 24.363281 L 22.667969 28.585938 C 22.667969 29.15625 23.132812 29.617188 23.695312 29.617188 L 28.121094 29.617188 C 28.691406 29.617188 29.152344 29.15625 29.152344 28.585938 L 29.152344 24.363281 C 29.152344 23.792969 28.691406 23.332031 28.121094 23.332031 Z M 27.089844 27.554688 L 24.726562 27.554688 L 24.726562 25.390625 L 27.089844 25.390625 Z M 27.089844 27.554688 "/>
<path style=" stroke:none;fill-rule:nonzero;fill:rgb(0%,0%,0%);fill-opacity:1;" d="M 37.28125 23.332031 L 32.859375 23.332031 C 32.289062 23.332031 31.828125 23.792969 31.828125 24.363281 L 31.828125 28.585938 C 31.828125 29.15625 32.289062 29.617188 32.859375 29.617188 L 37.28125 29.617188 C 37.855469 29.617188 38.3125 29.15625 38.3125 28.585938 L 38.3125 24.363281 C 38.3125 23.792969 37.855469 23.332031 37.28125 23.332031 Z M 36.253906 27.554688 L 33.890625 27.554688 L 33.890625 25.390625 L 36.253906 25.390625 Z M 36.253906 27.554688 "/>
<path style=" stroke:none;fill-rule:nonzero;fill:rgb(0%,0%,0%);fill-opacity:1;" d="M 53.363281 32.722656 C 52.652344 30.304688 51.386719 27.757812 49.964844 25.910156 C 49.0625 24.738281 47.953125 23.539062 46.539062 23.539062 C 45.34375 23.539062 44.378906 24.371094 43.523438 25.390625 L 43.523438 9.378906 L 43.828125 9.378906 C 45.480469 9.378906 46.828125 8.03125 46.828125 6.375 C 46.828125 4.722656 45.480469 3.375 43.828125 3.375 L 16.765625 3.375 C 15.109375 3.375 13.765625 4.722656 13.765625 6.375 C 13.765625 8.03125 15.109375 9.378906 16.765625 9.378906 L 17.070312 9.378906 L 17.070312 13.984375 L 3.085938 13.984375 C 1.386719 13.984375 0 15.363281 0 17.066406 C 0 18.484375 0.964844 19.683594 2.265625 20.042969 L 2.265625 48.515625 L 1.808594 48.515625 C 1.242188 48.515625 0.777344 48.976562 0.777344 49.546875 C 0.777344 50.113281 1.242188 50.570312 1.808594 50.570312 L 47.691406 50.570312 C 48.261719 50.570312 48.722656 50.113281 48.722656 49.546875 C 48.722656 48.996094 48.289062 48.550781 47.75 48.519531 L 47.75 43.558594 C 51.070312 43.277344 52.585938 41.632812 53.28125 40.226562 C 54.457031 37.839844 53.976562 34.828125 53.363281 32.722656 Z M 3.085938 16.039062 L 17.070312 16.039062 L 17.070312 18.09375 L 3.085938 18.09375 C 2.523438 18.09375 2.0625 17.632812 2.0625 17.066406 C 2.0625 16.5 2.523438 16.039062 3.085938 16.039062 Z M 17.070312 48.515625 L 4.328125 48.515625 L 4.328125 20.152344 L 17.070312 20.152344 Z M 28.941406 48.515625 L 25.3125 48.515625 L 25.3125 37.730469 L 28.941406 37.730469 Z M 34.632812 48.515625 L 31.003906 48.515625 L 31.003906 37.730469 L 34.632812 37.730469 Z M 41.464844 48.515625 L 36.6875 48.515625 L 36.6875 36.699219 C 36.6875 36.132812 36.226562 35.671875 35.664062 35.671875 L 24.285156 35.671875 C 23.714844 35.671875 23.257812 36.132812 23.257812 36.699219 L 23.257812 48.515625 L 19.128906 48.515625 L 19.128906 9.378906 L 26.191406 9.378906 C 26.761719 9.378906 27.21875 8.917969 27.21875 8.347656 C 27.21875 7.78125 26.761719 7.316406 26.191406 7.316406 L 16.765625 7.316406 C 16.257812 7.316406 15.824219 6.882812 15.824219 6.375 C 15.824219 5.859375 16.246094 5.429688 16.765625 5.429688 L 43.828125 5.429688 C 44.34375 5.429688 44.765625 5.859375 44.765625 6.375 C 44.765625 6.882812 44.335938 7.316406 43.828125 7.316406 L 34.398438 7.316406 C 33.828125 7.316406 33.367188 7.777344 33.367188 8.347656 C 33.367188 8.914062 33.828125 9.371094 34.398438 9.371094 L 41.464844 9.378906 L 41.464844 28.496094 C 40.226562 30.851562 39.429688 33.457031 39.28125 35.691406 C 39.089844 38.453125 39.84375 40.613281 41.464844 41.976562 Z M 45.6875 48.515625 L 43.523438 48.515625 L 43.523438 42.945312 C 44.039062 43.246094 44.722656 43.46875 45.6875 43.558594 Z M 51.429688 39.320312 C 50.8125 40.570312 49.574219 41.300781 47.75 41.492188 L 47.75 37.179688 L 49.273438 35.730469 C 49.683594 35.335938 49.699219 34.691406 49.304688 34.277344 C 48.917969 33.863281 48.265625 33.851562 47.855469 34.238281 L 47.75 34.339844 L 47.75 31.046875 C 47.75 30.480469 47.289062 30.019531 46.71875 30.019531 C 46.152344 30.019531 45.6875 30.480469 45.6875 31.046875 L 45.6875 32.910156 L 45.589844 32.820312 C 45.179688 32.425781 44.527344 32.441406 44.132812 32.851562 C 43.742188 33.265625 43.753906 33.914062 44.167969 34.304688 L 45.6875 35.753906 L 45.6875 37.101562 L 44.859375 36.511719 C 44.394531 36.179688 43.75 36.285156 43.417969 36.75 C 43.089844 37.214844 43.199219 37.859375 43.664062 38.183594 L 45.6875 39.628906 L 45.6875 41.492188 C 43.796875 41.289062 42.507812 40.527344 41.855469 39.199219 C 40.589844 36.632812 41.664062 32.550781 43.261719 29.503906 C 43.269531 29.484375 43.277344 29.46875 43.285156 29.453125 C 43.730469 28.609375 44.214844 27.84375 44.699219 27.214844 C 45.726562 25.878906 46.265625 25.59375 46.539062 25.59375 C 46.808594 25.59375 47.335938 25.867188 48.332031 27.164062 C 50.652344 30.183594 53.023438 36.089844 51.429688 39.320312 Z M 51.429688 39.320312 "/>
<path style=" stroke:none;fill-rule:nonzero;fill:rgb(0%,0%,0%);fill-opacity:1;" d="M 30.316406 7.316406 L 30.296875 7.316406 C 29.726562 7.316406 29.265625 7.78125 29.265625 8.347656 C 29.265625 8.917969 29.726562 9.378906 30.296875 9.378906 L 30.316406 9.378906 C 30.886719 9.378906 31.347656 8.917969 31.347656 8.347656 C 31.347656 7.78125 30.886719 7.316406 30.316406 7.316406 Z M 30.316406 7.316406 "/>
</g>
</svg>
